# xmcd CD database file
#
# Track frame offsets:
#	150
#	35322
#	93197
#	146607
#	190742
#	233587
#	278207
#
# Disc length: 4222 seconds
#
# Revision: 2
# Processed by: cddbd v1.4PL0 Copyright (c) Steve Scherf et al.
# Submitted via: CDex 1.50Beta7
#
DISCID=53107c07
DTITLE=Shibusashirazu - DETTARAMEN
DYEAR=1996
DGENRE=Jazz
TTITLE0=Ooh! Baby
TTITLE1=Senshi
TTITLE2=Meltdown
TTITLE3=We Don't Know What Jazz Is
TTITLE4=A Men on The Boardwalk
TTITLE5=The Shortage of Brain Cells
TTITLE6=Theme of Honda-Komuten
EXTD=YEAR: 1996
EXTT0=
EXTT1=
EXTT2=
EXTT3=
EXTT4=
EXTT5=
EXTT6=
PLAYORDER=
